<svg xmlns="http://www.w3.org/2000/svg" width="250" height="37" viewBox="0 0 294 43" id="mainLogo">
				  <g id="stroke"><polygon points="23.9 25.4 18.7 25.4 30.2 39 35.1 38.8 "></polygon></g>
				  <g id="q"><path d="M18.7 1C7.9 1 1 8.8 1 18.9c0 10 6.9 17.9 17.7 17.9 0.1 0 0.2 0 0.2 0v-3.8c-0.1 0-0.1 0-0.2 0 -8.4 0-13.6-6.3-13.6-14 0-7.8 5.3-14.1 13.6-14.1 8.4 0 13.7 6.4 13.7 14.1 0 5-2.2 9.4-6.1 11.9 -0.1 0.6-0.2 1.3-0.3 2 0.1 0.1 0.2 0.2 0.2 0.3 0 0.1 0.1 0.3 0.1 0.4 0.2 0 0.5 0.1 0.6 0.3 0.2 0.3 0.4 0.5 0.6 0.8 0 0 0 0 0 0.1 5.6-3 8.9-8.9 8.9-15.7C36.4 8.8 29.5 1 18.7 1"></path></g>
				  <g id="u"><path d="M49 21.7V1.7h4v19.9c0 6.6 3.5 11.4 10.4 11.4 7 0 10.4-4.8 10.4-11.4V1.7h4v19.9c0 9-5.2 15.1-14.4 15.1C54.3 36.8 49 30.6 49 21.7"></path></g>
				  <g id="a"><polygon points="103.7 1.7 104.6 1.7 121.5 36 116.9 36 113.9 30 104.2 9.4 91.4 36 86.9 36 "></polygon></g>
				  <g id="n"><polygon points="162 36 160.8 36 136.1 10.1 136.1 36 132.1 36 132.1 1.7 133.3 1.7 158 27.5 158 1.7 162 1.7 "></polygon></g>
				  <g id="t"><polygon points="173.5 1.7 201.5 1.7 201.5 5.5 189.5 5.5 189.5 36 185.5 36 185.5 5.5 173.5 5.5 "></polygon></g>
				  <g id="i"><rect x="213" y="1.7" width="4" height="34.2"></rect></g>
				  <g id="l"><polygon points="233.4 36 233.4 1.7 237.4 1.7 237.4 32.3 257.3 32.3 257.3 36 "></polygon></g>
				  <g id="e"><polygon points="289.9 21 271.3 21 271.3 32.3 292.4 32.3 292.4 36 267.3 36 267.3 1.7 292.4 1.7 292.4 5.5 271.3 5.5 271.3 17.3 289.9 17.3 "></polygon></g>
				</svg>